<svg viewBox="0 0 1279.55 338.14" xmlns="http://www.w3.org/2000/svg" data-name="Layer 1" id="Layer_1" style="max-height: 500px" width="1279.55" height="338.14">
  <defs>
    <style>
      .cls-1 {
        fill: #58595b;
      }

      .cls-2 {
        fill: #7b5b54;
      }
    </style>
  </defs>
  <path d="M16.76,194.57h64.66c30.83,0,45.8-21.85,45.8-43.7s-14.97-43.41-45.8-43.41H16.76v-13.17h58.97c28.14,0,41.01-18.26,41.01-37.12,0-20.66-14.97-42.21-41.01-42.21H16.76V0h62.27c41.61,0,56.28,29.04,56.28,56.58,0,14.67-7.19,30.83-27.25,41.61v.59c30.24,12.87,37.72,32.33,37.72,52.09,0,29.03-15.57,58.67-69.75,58.67H16.76v-14.97ZM0,107.46h16.77v87.11H0v-87.11ZM0,14.97h16.77v79.33H0V14.97Z" class="cls-2"/>
  <path d="M235.61,62.86c-29.34,0-37.12,16.76-37.12,27.24h-15.57c2.39-27.54,24.25-41.01,54.78-41.01s56.87,7.48,56.87,52.09v23.65h-15.56v-17.36c0-26.04-5.39-44.6-43.41-44.6M176.04,171.23c0-39.21,32.33-46.4,67.95-46.4h35.02v13.17h-38.32c-26.64,0-47.89,5.69-47.89,30.54s20.06,31.43,36.22,31.43c20.95,0,49.99-14.67,49.99-43.7v-18.26h15.56v71.54h-15.56v-24.55h-.6c-12.87,21.25-30.84,29.34-54.48,29.34-31.43,0-47.89-17.96-47.89-43.11" class="cls-2"/>
  <path d="M319.74,270.31v-14.37c2.39.3,4.79.3,6.89.3,29.34,0,38.91-18.26,49.99-46.7l-61.36-155.66h17.07l51.49,132.91h.59l49.69-132.91h17.07l-61.37,160.75c-12.57,33.23-21.55,56.27-59.86,56.27-3.29,0-6.89,0-10.18-.6" class="cls-2"/>
  <path d="M476.61,53.88h15.57v23.05h.6c10.18-19.16,27.54-27.84,46.4-27.84,22.15,0,40.11,8.68,48.79,28.74h.3c9.28-20.06,33.23-28.74,52.09-28.74,31.43,0,54.18,17.66,54.18,59.57v100.88h-15.57v-103.57c0-28.14-19.75-41.91-42.5-41.91-21.56,0-43.11,13.77-43.11,41.91v-.3,103.87h-15.57v-103.57c0-28.14-19.75-41.91-42.5-41.91-21.55,0-43.11,13.77-43.11,41.91v103.57h-15.57V53.88Z" class="cls-2"/>
  <path d="M856.81,131.41c0-41.61-23.05-67.35-56.28-67.35s-56.27,25.75-56.27,67.35,23.05,67.95,56.27,67.95,56.28-26.04,56.28-67.95M727.49,131.41c0-50.59,29.94-82.32,73.04-82.32s73.04,31.73,73.04,82.32-29.93,82.92-73.04,82.92-73.04-32.03-73.04-82.92" class="cls-2"/>
  <path d="M964.6,199.36c23.05,0,46.1-13.77,46.1-41.91V53.88h15.57v155.66h-15.57v-23.05h-1.2c-10.17,19.16-28.43,27.84-48.79,27.84-31.43,0-54.18-17.66-54.18-59.57V53.88h15.57v103.57c0,28.14,19.76,41.91,42.51,41.91" class="cls-2"/>
  <path d="M1129.85,64.06c-23.05,0-46.1,13.77-46.1,41.91v103.57h-15.57V53.88h15.57v23.05h.6c10.18-19.16,29.04-27.84,49.39-27.84,31.43,0,54.18,17.66,54.18,59.57v100.88h-15.57v-103.57c0-28.14-19.76-41.91-42.51-41.91" class="cls-2"/>
  <path d="M1277.75,67.65h-38.32v-13.77h38.32v13.77ZM1262.18,199.96c6.29,0,12.87-1.5,17.36-3.29v12.87c-6.29,2.39-12.87,4.79-21.85,4.79-18.26,0-33.82-11.38-33.82-34.73v-111.95h15.57v111.66c0,15.87,11.07,20.66,22.75,20.66M1223.87,21.85l15.57-7.18v39.22h-15.57V21.85Z" class="cls-2"/>
  <rect height="209.54" width="16.77" class="cls-2"/>
  <path d="M559.61,285.57c-.45-1.86-1.15-3.52-2.12-4.98-.96-1.46-2.2-2.64-3.7-3.56-1.51-.92-3.32-1.37-5.43-1.37-2.35,0-4.34.46-5.96,1.37-1.62.92-2.94,2.11-3.95,3.56-1.01,1.46-1.74,3.12-2.19,4.98-.45,1.85-.67,3.72-.67,5.6s.22,3.75.67,5.61c.45,1.86,1.18,3.52,2.19,4.97,1.01,1.46,2.33,2.64,3.95,3.56,1.63.91,3.61,1.37,5.96,1.37,2.11,0,3.92-.46,5.43-1.37,1.5-.92,2.74-2.11,3.7-3.56.96-1.46,1.67-3.11,2.12-4.97.44-1.86.67-3.72.67-5.61s-.23-3.75-.67-5.6M535.6,259.02v20.87h.14c.47-1.31,1.14-2.47,2.01-3.45.87-.99,1.87-1.82,3-2.5,1.13-.68,2.35-1.19,3.67-1.52,1.31-.33,2.63-.49,3.95-.49,2.77,0,5.18.52,7.23,1.55,2.04,1.03,3.75,2.43,5.11,4.2,1.36,1.76,2.37,3.81,3.03,6.14.66,2.33.99,4.79.99,7.37s-.33,5.05-.99,7.37c-.66,2.33-1.67,4.37-3.03,6.14-1.36,1.76-3.07,3.15-5.11,4.16-2.05,1.01-4.45,1.52-7.23,1.52-2.96,0-5.61-.68-7.94-2.05-2.33-1.36-4.01-3.32-5.04-5.85h-.14v6.91h-4.09v-50.35h4.44Z" class="cls-1"/>
  <path d="M577.91,272.98l11.99,31.03,11.21-31.03h4.45l-15.8,41.89c-.66,1.56-1.27,2.83-1.84,3.85-.57,1.01-1.19,1.81-1.87,2.4-.68.59-1.48,1.01-2.4,1.27-.92.26-2.08.39-3.49.39-.89-.04-1.59-.08-2.08-.1-.49-.03-.93-.11-1.3-.25v-3.74c.51.1,1.02.18,1.51.25.49.07,1,.11,1.51.11.99,0,1.8-.14,2.43-.42.64-.28,1.19-.67,1.66-1.16.47-.49.87-1.09,1.2-1.8.33-.7.68-1.48,1.06-2.33l1.55-4.09-14.53-36.25h4.73Z" class="cls-1"/>
  <path d="M668.61,289.62l-9.73-25.81-10.08,25.81h19.82ZM661.77,259.02l19.75,50.35h-5.15l-6.14-15.66h-22.92l-6.07,15.66h-5.08l20.24-50.35h5.36Z" class="cls-1"/>
  <path d="M695.27,272.98v6.28h.14c.85-2.21,2.35-3.98,4.51-5.32,2.16-1.34,4.54-2.01,7.12-2.01s4.67.33,6.39.99c1.71.66,3.09,1.58,4.12,2.79,1.03,1.2,1.77,2.67,2.19,4.41.42,1.74.64,3.69.64,5.85v23.41h-4.44v-22.71c0-1.55-.14-3-.42-4.34-.28-1.34-.78-2.5-1.48-3.49-.71-.99-1.66-1.77-2.86-2.33-1.2-.57-2.69-.85-4.48-.85s-3.38.31-4.76.95c-1.39.64-2.56,1.51-3.53,2.61-.96,1.1-1.72,2.42-2.26,3.95-.54,1.53-.83,3.18-.88,4.97v21.23h-4.44v-36.39h4.44Z" class="cls-1"/>
  <path d="M757.54,289.48c-.28.52-.82.89-1.62,1.13-.8.24-1.5.4-2.11.49-1.88.33-3.82.62-5.82.88-2,.26-3.82.65-5.46,1.16-1.65.52-3,1.26-4.06,2.22-1.06.96-1.59,2.34-1.59,4.12,0,1.13.22,2.13.67,3,.45.87,1.05,1.62,1.8,2.26.75.63,1.62,1.12,2.61,1.44.99.33,1.99.49,3.03.49,1.69,0,3.31-.26,4.87-.78,1.55-.52,2.9-1.27,4.05-2.26,1.15-.99,2.07-2.19,2.75-3.6.68-1.41,1.02-3.01,1.02-4.79v-5.78h-.14ZM735.32,278.62c.75-1.55,1.77-2.82,3.07-3.81,1.29-.99,2.81-1.72,4.55-2.19,1.74-.47,3.67-.71,5.78-.71,1.6,0,3.2.16,4.8.46,1.6.31,3.03.88,4.3,1.73,1.27.85,2.3,2.04,3.1,3.56.8,1.53,1.2,3.52,1.2,5.96v19.32c0,1.78.87,2.68,2.61,2.68.52,0,.99-.09,1.41-.28v3.74c-.52.1-.98.17-1.37.21-.4.05-.91.07-1.52.07-1.13,0-2.04-.15-2.71-.46-.68-.3-1.21-.74-1.59-1.3-.38-.57-.62-1.23-.74-2.01-.12-.78-.18-1.63-.18-2.57h-.14c-.8,1.17-1.61,2.22-2.43,3.14-.82.92-1.74,1.68-2.75,2.29-1.01.61-2.16,1.08-3.46,1.41-1.29.33-2.83.49-4.62.49-1.69,0-3.28-.2-4.76-.6-1.48-.4-2.77-1.03-3.87-1.9-1.11-.87-1.98-1.98-2.61-3.31-.64-1.34-.95-2.93-.95-4.76,0-2.54.57-4.52,1.69-5.96,1.13-1.43,2.62-2.53,4.48-3.28,1.86-.75,3.95-1.28,6.28-1.58,2.33-.31,4.69-.6,7.09-.88.94-.09,1.76-.21,2.47-.35.71-.14,1.3-.39,1.77-.74.47-.35.83-.83,1.09-1.44.26-.61.39-1.41.39-2.4,0-1.5-.25-2.74-.74-3.7-.49-.96-1.17-1.73-2.05-2.29-.87-.57-1.88-.95-3.03-1.16-1.15-.21-2.39-.32-3.7-.32-2.82,0-5.12.67-6.91,2.01-1.79,1.34-2.73,3.49-2.82,6.45h-4.44c.14-2.11.59-3.95,1.34-5.5" class="cls-1"/>
  <path d="M781.02,272.98v6.28h.14c.85-2.21,2.35-3.98,4.51-5.32,2.16-1.34,4.54-2.01,7.12-2.01s4.67.33,6.39.99c1.71.66,3.09,1.58,4.12,2.79,1.03,1.2,1.77,2.67,2.19,4.41.42,1.74.64,3.69.64,5.85v23.41h-4.44v-22.71c0-1.55-.14-3-.42-4.34-.28-1.34-.78-2.5-1.48-3.49-.71-.99-1.66-1.77-2.86-2.33-1.2-.57-2.69-.85-4.48-.85s-3.38.31-4.76.95c-1.39.64-2.56,1.51-3.53,2.61-.96,1.1-1.72,2.42-2.26,3.95-.54,1.53-.83,3.18-.88,4.97v21.23h-4.44v-36.39h4.44Z" class="cls-1"/>
  <path d="M834.62,272.98v3.74h-7.41v24.54c0,1.46.2,2.6.6,3.42.4.82,1.4,1.28,3,1.38,1.27,0,2.54-.07,3.81-.21v3.74c-.66,0-1.32.03-1.98.07-.66.04-1.31.07-1.98.07-2.96,0-5.03-.58-6.21-1.73-1.17-1.16-1.74-3.28-1.69-6.38v-24.9h-6.35v-3.74h6.35v-10.93h4.44v10.93h7.41Z" class="cls-1"/>
  <path d="M869.82,289.48c-.28.52-.82.89-1.62,1.13-.8.24-1.5.4-2.12.49-1.88.33-3.82.62-5.82.88-2,.26-3.82.65-5.46,1.16-1.65.52-3,1.26-4.06,2.22-1.06.96-1.59,2.34-1.59,4.12,0,1.13.22,2.13.67,3,.45.87,1.05,1.62,1.8,2.26.75.63,1.62,1.12,2.61,1.44.99.33,1.99.49,3.03.49,1.69,0,3.31-.26,4.86-.78,1.55-.52,2.9-1.27,4.06-2.26,1.15-.99,2.07-2.19,2.75-3.6.68-1.41,1.03-3.01,1.03-4.79v-5.78h-.14ZM847.6,278.62c.75-1.55,1.77-2.82,3.07-3.81,1.3-.99,2.81-1.72,4.55-2.19,1.74-.47,3.67-.71,5.78-.71,1.6,0,3.2.16,4.8.46,1.6.31,3.03.88,4.3,1.73,1.27.85,2.3,2.04,3.1,3.56.8,1.53,1.2,3.52,1.2,5.96v19.32c0,1.78.87,2.68,2.61,2.68.51,0,.99-.09,1.41-.28v3.74c-.52.1-.98.17-1.37.21-.4.05-.91.07-1.52.07-1.13,0-2.04-.15-2.71-.46-.68-.3-1.21-.74-1.59-1.3-.38-.57-.62-1.23-.74-2.01-.12-.78-.18-1.63-.18-2.57h-.14c-.8,1.17-1.61,2.22-2.43,3.14-.82.92-1.74,1.68-2.75,2.29-1.01.61-2.16,1.08-3.45,1.41-1.29.33-2.83.49-4.62.49-1.69,0-3.28-.2-4.76-.6-1.48-.4-2.77-1.03-3.87-1.9-1.11-.87-1.98-1.98-2.61-3.31-.64-1.34-.95-2.93-.95-4.76,0-2.54.57-4.52,1.69-5.96,1.13-1.43,2.62-2.53,4.48-3.28,1.86-.75,3.95-1.28,6.28-1.58,2.33-.31,4.69-.6,7.09-.88.94-.09,1.76-.21,2.47-.35.71-.14,1.29-.39,1.77-.74.47-.35.83-.83,1.09-1.44.26-.61.39-1.41.39-2.4,0-1.5-.25-2.74-.74-3.7-.49-.96-1.17-1.73-2.05-2.29-.87-.57-1.88-.95-3.03-1.16-1.15-.21-2.39-.32-3.7-.32-2.82,0-5.13.67-6.91,2.01-1.78,1.34-2.73,3.49-2.82,6.45h-4.44c.14-2.11.59-3.95,1.34-5.5" class="cls-1"/>
  <path d="M937.73,282.92c1.46,0,2.84-.22,4.16-.67,1.31-.45,2.47-1.09,3.45-1.94.99-.85,1.77-1.87,2.36-3.07.59-1.2.88-2.57.88-4.13,0-3.1-.9-5.55-2.68-7.34-1.79-1.79-4.51-2.68-8.18-2.68h-17.91v19.82h17.91ZM938.09,259.02c2.07,0,4.03.26,5.89.78,1.86.52,3.48,1.3,4.87,2.36,1.39,1.06,2.49,2.42,3.31,4.09.82,1.67,1.23,3.63,1.23,5.89,0,3.2-.82,5.97-2.47,8.32-1.65,2.35-4.09,3.86-7.34,4.51v.14c1.64.24,3.01.67,4.09,1.31,1.08.63,1.97,1.44,2.65,2.43.68.99,1.17,2.13,1.48,3.42.31,1.29.51,2.69.6,4.2.04.85.09,1.88.14,3.1.04,1.22.14,2.46.28,3.7.14,1.24.37,2.42.67,3.52.3,1.1.71,1.97,1.23,2.57h-5.29c-.28-.47-.51-1.05-.67-1.72-.17-.68-.28-1.39-.35-2.12-.07-.73-.13-1.44-.18-2.15-.05-.71-.09-1.31-.14-1.83-.09-1.78-.25-3.56-.46-5.32-.21-1.77-.66-3.34-1.34-4.73-.68-1.39-1.67-2.5-2.96-3.35-1.29-.85-3.07-1.22-5.33-1.13h-18.19v22.35h-4.8v-50.35h23.06Z" class="cls-1"/>
  <path d="M992.14,283.77c-.54-1.56-1.3-2.93-2.29-4.13-.99-1.2-2.18-2.16-3.59-2.89-1.41-.73-3.01-1.09-4.79-1.09s-3.46.37-4.87,1.09c-1.41.73-2.61,1.69-3.59,2.89-.99,1.2-1.78,2.59-2.36,4.16-.59,1.57-.98,3.18-1.16,4.83h23.56c-.05-1.69-.34-3.31-.88-4.86M970.14,297.35c.45,1.72,1.16,3.26,2.15,4.62.99,1.36,2.23,2.49,3.73,3.38,1.51.89,3.32,1.34,5.43,1.34,3.24,0,5.78-.85,7.62-2.54,1.83-1.69,3.1-3.95,3.81-6.77h4.44c-.94,4.14-2.67,7.34-5.18,9.59-2.52,2.26-6.08,3.39-10.68,3.39-2.87,0-5.35-.51-7.44-1.52-2.09-1.01-3.8-2.4-5.11-4.16-1.32-1.77-2.29-3.81-2.93-6.14-.64-2.33-.95-4.78-.95-7.37,0-2.4.32-4.75.95-7.05.64-2.31,1.61-4.36,2.93-6.17,1.32-1.81,3.02-3.27,5.11-4.37,2.09-1.1,4.57-1.66,7.44-1.66s5.41.59,7.48,1.76c2.07,1.17,3.75,2.71,5.04,4.62,1.29,1.91,2.22,4.09,2.79,6.56.56,2.47.8,4.97.71,7.51h-28c0,1.6.22,3.25.67,4.97" class="cls-1"/>
  <path d="M1032.24,289.48c-.28.52-.82.89-1.62,1.13-.8.24-1.5.4-2.12.49-1.88.33-3.82.62-5.82.88-2,.26-3.82.65-5.46,1.16-1.65.52-3,1.26-4.06,2.22-1.06.96-1.59,2.34-1.59,4.12,0,1.13.22,2.13.67,3,.45.87,1.05,1.62,1.8,2.26.75.63,1.62,1.12,2.61,1.44.99.33,1.99.49,3.03.49,1.69,0,3.31-.26,4.86-.78,1.55-.52,2.9-1.27,4.06-2.26,1.15-.99,2.07-2.19,2.75-3.6.68-1.41,1.03-3.01,1.03-4.79v-5.78h-.14ZM1010.02,278.62c.75-1.55,1.77-2.82,3.07-3.81,1.29-.99,2.81-1.72,4.55-2.19,1.74-.47,3.67-.71,5.78-.71,1.6,0,3.2.16,4.8.46,1.6.31,3.03.88,4.3,1.73,1.27.85,2.3,2.04,3.1,3.56.8,1.53,1.2,3.52,1.2,5.96v19.32c0,1.78.87,2.68,2.61,2.68.51,0,.99-.09,1.41-.28v3.74c-.52.1-.98.17-1.37.21-.4.05-.91.07-1.52.07-1.13,0-2.04-.15-2.71-.46-.68-.3-1.21-.74-1.59-1.3-.38-.57-.62-1.23-.74-2.01-.12-.78-.18-1.63-.18-2.57h-.14c-.8,1.17-1.61,2.22-2.43,3.14-.82.92-1.74,1.68-2.75,2.29-1.01.61-2.16,1.08-3.45,1.41-1.29.33-2.83.49-4.62.49-1.69,0-3.28-.2-4.76-.6-1.48-.4-2.77-1.03-3.87-1.9-1.11-.87-1.98-1.98-2.61-3.31-.64-1.34-.95-2.93-.95-4.76,0-2.54.57-4.52,1.69-5.96,1.13-1.43,2.62-2.53,4.48-3.28,1.86-.75,3.95-1.28,6.28-1.58,2.33-.31,4.69-.6,7.09-.88.94-.09,1.76-.21,2.47-.35.71-.14,1.3-.39,1.77-.74.47-.35.83-.83,1.09-1.44.26-.61.39-1.41.39-2.4,0-1.5-.25-2.74-.74-3.7-.49-.96-1.17-1.73-2.05-2.29-.87-.57-1.88-.95-3.03-1.16-1.15-.21-2.39-.32-3.7-.32-2.82,0-5.13.67-6.91,2.01-1.79,1.34-2.73,3.49-2.82,6.45h-4.44c.14-2.11.59-3.95,1.34-5.5" class="cls-1"/>
  <rect height="50.35" width="4.44" y="259.02" x="1051.42" class="cls-1"/>
  <path d="M1084.49,272.98v3.74h-7.41v24.54c0,1.46.2,2.6.6,3.42.4.82,1.4,1.28,3,1.38,1.27,0,2.54-.07,3.81-.21v3.74c-.66,0-1.32.03-1.97.07-.66.04-1.32.07-1.98.07-2.96,0-5.03-.58-6.2-1.73-1.18-1.16-1.74-3.28-1.7-6.38v-24.9h-6.35v-3.74h6.35v-10.93h4.44v10.93h7.41Z" class="cls-1"/>
  <path d="M1097.19,272.98l11.99,31.03,11.21-31.03h4.45l-15.8,41.89c-.66,1.56-1.27,2.83-1.84,3.85-.57,1.01-1.19,1.81-1.87,2.4-.68.59-1.48,1.01-2.4,1.27-.92.26-2.08.39-3.49.39-.89-.04-1.59-.08-2.08-.1-.49-.03-.93-.11-1.3-.25v-3.74c.52.1,1.02.18,1.51.25.49.07,1,.11,1.51.11.99,0,1.8-.14,2.43-.42.64-.28,1.19-.67,1.66-1.16.47-.49.87-1.09,1.2-1.8.33-.7.68-1.48,1.06-2.33l1.55-4.09-14.53-36.25h4.73Z" class="cls-1"/>
</svg>